{
  "accessors": [
    {
      "bufferView": 2,
      "componentType": 5126,
      "count": 92,
      "max": [
        1.2102299928665161,
        1.1920039653778076,
        4.71999979019165
      ],
      "min": [
        -3.7702300548553467,
        -5.473197937011719,
        -10.789460182189941
      ],
      "type": "VEC3"
    },
    {
      "bufferView": 2,
      "byteOffset": 1104,
      "componentType": 5126,
      "count": 92,
      "max": [
        1.0,
        0.47165191173553467,
        1.0
      ],
      "min": [
        -1.0,
        -7.964604264998343e-07,
        -1.0
      ],
      "type": "VEC3"
    },
    {
      "bufferView": 1,
      "componentType": 5126,
      "count": 92,
      "max": [
        6.980947017669678,
        5.3791069984436035
      ],
      "min": [
        -4.658082962036133,
        -6.1030778884887695
      ],
      "type": "VEC2"
    },
    {
      "bufferView": 0,
      "componentType": 5125,
      "count": 168,
      "type": "SCALAR"
    },
    {
      "bufferView": 2,
      "byteOffset": 2208,
      "componentType": 5126,
      "count": 88,
      "max": [
        0.003742397064343095,
        0.08861493319272995,
        -1.6901710033416748
      ],
      "min": [
        -2.616658926010132,
        -9.049774169921875,
        -10.789460182189941
      ],
      "type": "VEC3"
    },
    {
      "bufferView": 2,
      "byteOffset": 3264,
      "componentType": 5126,
      "count": 88,
      "max": [
        1.0,
        1.0,
        1.0
      ],
      "min": [
        -1.0,
        -1.0,
        -1.0
      ],
      "type": "VEC3"
    },
    {
      "bufferView": 1,
      "byteOffset": 736,
      "componentType": 5126,
      "count": 88,
      "max": [
        4.875710964202881,
        4.87161922454834
      ],
      "min": [
        -4.875662803649902,
        -0.1353292018175125
      ],
      "type": "VEC2"
    },
    {
      "bufferView": 0,
      "byteOffset": 672,
      "componentType": 5125,
      "count": 144,
      "type": "SCALAR"
    },
    {
      "bufferView": 2,
      "byteOffset": 4320,
      "componentType": 5126,
      "count": 48,
      "max": [
        0.04960453882813454,
        -2.4329559803009033,
        -3.779505968093872
      ],
      "min": [
        -2.6726999282836914,
        -3.2670459747314453,
        -4.870494842529297
      ],
      "type": "VEC3"
    },
    {
      "bufferView": 2,
      "byteOffset": 4896,
      "componentType": 5126,
      "count": 48,
      "max": [
        1.0,
        1.0,
        1.0
      ],
      "min": [
        -1.0,
        -1.0,
        -1.0
      ],
      "type": "VEC3"
    },
    {
      "bufferView": 1,
      "byteOffset": 1440,
      "componentType": 5126,
      "count": 48,
      "max": [
        1.0,
        1.0
      ],
      "min": [
        0.0,
        0.0
      ],
      "type": "VEC2"
    },
    {
      "bufferView": 0,
      "byteOffset": 1248,
      "componentType": 5125,
      "count": 72,
      "type": "SCALAR"
    },
    {
      "bufferView": 2,
      "byteOffset": 5472,
      "componentType": 5126,
      "count": 104,
      "max": [
        1.2102299928665161,
        1.1920039653778076,
        4.71999979019165
      ],
      "min": [
        -3.7702300548553467,
        -5.473197937011719,
        -9.140003204345703
      ],
      "type": "VEC3"
    },
    {
      "bufferView": 2,
      "byteOffset": 6720,
      "componentType": 5126,
      "count": 104,
      "max": [
        1.0,
        1.0,
        2.2350519657265977e-07
      ],
      "min": [
        -1.0,
        -1.0,
        -9.52773504536708e-08
      ],
      "type": "VEC3"
    },
    {
      "bufferView": 1,
      "byteOffset": 1824,
      "componentType": 5126,
      "count": 104,
      "max": [
        5.541207790374756,
        6.0
      ],
      "min": [
        -5.514182090759277,
        -0.4003519117832184
      ],
      "type": "VEC2"
    },
    {
      "bufferView": 0,
      "byteOffset": 1536,
      "componentType": 5125,
      "count": 156,
      "type": "SCALAR"
    }
  ],
  "asset": {
    "extras": {
      "author": "Hero_Homes360 (https://sketchfab.com/HeroHOlmes)",
      "license": "CC-BY-4.0 (http://creativecommons.org/licenses/by/4.0/)",
      "source": "https://sketchfab.com/3d-models/0x10c-weapon-untextured-be5f24e54195472daee2adcb7d72038a",
      "title": "0x10c Weapon (Untextured)"
    },
    "generator": "Sketchfab-14.84.0",
    "version": "2.0"
  },
  "bufferViews": [
    {
      "buffer": 0,
      "byteLength": 2160,
      "name": "floatBufferViews",
      "target": 34963
    },
    {
      "buffer": 0,
      "byteLength": 2656,
      "byteOffset": 2160,
      "byteStride": 8,
      "name": "floatBufferViews",
      "target": 34962
    },
    {
      "buffer": 0,
      "byteLength": 7968,
      "byteOffset": 4816,
      "byteStride": 12,
      "name": "floatBufferViews",
      "target": 34962
    }
  ],
  "buffers": [
    {
      "byteLength": 12784,
      "uri": "scene.bin"
    }
  ],
  "extensionsUsed": [
    "KHR_materials_specular",
    "KHR_materials_emissive_strength"
  ],
  "materials": [
    {
      "doubleSided": true,
      "extensions": {
        "KHR_materials_specular": {
          "specularColorFactor": [
            1.0,
            1.0,
            1.0
          ],
          "specularFactor": 0.0
        }
      },
      "name": "Gray",
      "pbrMetallicRoughness": {
        "baseColorFactor": [
          0.25730578540798066,
          0.25730578540798066,
          0.25730578540798066,
          1.0
        ],
        "metallicFactor": 0.6091917112147943,
        "roughnessFactor": 0.6111877191988264
      }
    },
    {
      "doubleSided": true,
      "extensions": {
        "KHR_materials_specular": {
          "specularColorFactor": [
            1.0,
            1.0,
            1.0
          ],
          "specularFactor": 0.05509485760340518
        }
      },
      "name": "GrayHandle",
      "pbrMetallicRoughness": {
        "baseColorFactor": [
          0.2482802702197365,
          0.2482802702197365,
          0.2482802702197365,
          1.0
        ],
        "roughnessFactor": 0.5671118331161022
      }
    },
    {
      "doubleSided": true,
      "emissiveFactor": [
        0.002739801090440856,
        1.0,
        0.0
      ],
      "extensions": {
        "KHR_materials_emissive_strength": {
          "emissiveStrength": 10.0
        }
      },
      "name": "GreenEmmis",
      "pbrMetallicRoughness": {
        "baseColorFactor": [
          0.005097615027984849,
          1.0,
          0.0,
          1.0
        ],
        "metallicFactor": 0.0,
        "roughnessFactor": 0.6
      }
    },
    {
      "doubleSided": true,
      "extensions": {
        "KHR_materials_specular": {
          "specularColorFactor": [
            1.0,
            1.0,
            1.0
          ],
          "specularFactor": 0.6721572627615431
        }
      },
      "name": "material",
      "pbrMetallicRoughness": {
        "baseColorFactor": [
          1.0,
          0.0,
          0.0,
          1.0
        ],
        "metallicFactor": 0.728826259153617,
        "roughnessFactor": 0.4
      }
    }
  ],
  "meshes": [
    {
      "name": "Object_0",
      "primitives": [
        {
          "attributes": {
            "NORMAL": 1,
            "POSITION": 0,
            "TEXCOORD_0": 2
          },
          "indices": 3,
          "material": 0,
          "mode": 4
        }
      ]
    },
    {
      "name": "Object_1",
      "primitives": [
        {
          "attributes": {
            "NORMAL": 5,
            "POSITION": 4,
            "TEXCOORD_0": 6
          },
          "indices": 7,
          "material": 1,
          "mode": 4
        }
      ]
    },
    {
      "name": "Object_2",
      "primitives": [
        {
          "attributes": {
            "NORMAL": 9,
            "POSITION": 8,
            "TEXCOORD_0": 10
          },
          "indices": 11,
          "material": 2,
          "mode": 4
        }
      ]
    },
    {
      "name": "Object_3",
      "primitives": [
        {
          "attributes": {
            "NORMAL": 13,
            "POSITION": 12,
            "TEXCOORD_0": 14
          },
          "indices": 15,
          "material": 3,
          "mode": 4
        }
      ]
    }
  ],
  "nodes": [
    {
      "children": [
        1
      ],
      "matrix": [
        0.03131016343832016,
        0.0,
        0.0,
        0.0,
        0.0,
        0.03130944680555103,
        -0.00021171421595711504,
        0.0,
        0.0,
        0.00021171421595711504,
        0.03130944680555103,
        0.0,
        0.0,
        0.0,
        0.0,
        1.0
      ],
      "name": "Sketchfab_model"
    },
    {
      "children": [
        2,
        3,
        4,
        5
      ],
      "name": "c882a96ea2fa41889a1b19eb34a00949.obj.cleaner.materialmerger.gles"
    },
    {
      "mesh": 0,
      "name": "Object_2"
    },
    {
      "mesh": 1,
      "name": "Object_3"
    },
    {
      "mesh": 2,
      "name": "Object_4"
    },
    {
      "mesh": 3,
      "name": "Object_5"
    }
  ],
  "scene": 0,
  "scenes": [
    {
      "name": "Sketchfab_Scene",
      "nodes": [
        0
      ]
    }
  ]
}
