{"asset":{"version":"2.0","generator":"Blockbench 4.6.4 glTF exporter"},"scenes":[{"nodes":[2],"name":"blockbench_export"}],"scene":0,"nodes":[{"name":"sphere","mesh":0},{"name":"cube","mesh":1},{"children":[0,1]}],"bufferViews":[{"buffer":0,"byteOffset":0,"byteLength":54144,"target":34962,"byteStride":12},{"buffer":0,"byteOffset":54144,"byteLength":54144,"target":34962,"byteStride":12},{"buffer":0,"byteOffset":108288,"byteLength":36096,"target":34962,"byteStride":8},{"buffer":0,"byteOffset":144384,"byteLength":13248,"target":34963},{"buffer":0,"byteOffset":157632,"byteLength":288,"target":34962,"byteStride":12},{"buffer":0,"byteOffset":157920,"byteLength":288,"target":34962,"byteStride":12},{"buffer":0,"byteOffset":158208,"byteLength":192,"target":34962,"byteStride":8},{"buffer":0,"byteOffset":158400,"byteLength":72,"target":34963}],"buffers":[{"byteLength":158472,"uri":"data:application/octet-stream;base64,"}],"accessors":[{"bufferView":0,"componentType":5126,"count":4512,"max":[0.15625,0.28125,0.15625],"min":[-0.15625,-0.03125,-0.15625],"type":"VEC3"},{"bufferView":1,"componentType":5126,"count":4512,"max":[0.9978589415550232,0.9978589415550232,0.9978589415550232],"min":[-0.9978589415550232,-0.9978589415550232,-0.9978589415550232],"type":"VEC3"},{"bufferView":2,"componentType":5126,"count":4512,"max":[0.53125,1],"min":[0,0.46875],"type":"VEC2"},{"bufferView":3,"componentType":5123,"count":6624,"max":[4511],"min":[0],"type":"SCALAR"},{"bufferView":4,"componentType":5126,"count":24,"max":[0.1875,1.0625,0.1875],"min":[-0.1875,0.125,-0.1875],"type":"VEC3"},{"bufferView":5,"componentType":5126,"count":24,"max":[1,1,1],"min":[-1,-1,-1],"type":"VEC3"},{"bufferView":6,"componentType":5126,"count":24,"max":[0.5625,1],"min":[0,0.0625],"type":"VEC2"},{"bufferView":7,"componentType":5123,"count":36,"max":[23],"min":[0],"type":"SCALAR"}],"materials":[{"pbrMetallicRoughness":{"metallicFactor":0,"roughnessFactor":1,"baseColorTexture":{"index":0}},"alphaMode":"MASK","alphaCutoff":0.05,"doubleSided":true},{"pbrMetallicRoughness":{"metallicFactor":0,"roughnessFactor":1,"baseColorTexture":{"index":1}},"alphaMode":"MASK","alphaCutoff":0.05,"doubleSided":true}],"textures":[{"sampler":0,"source":0,"name":"texture"},{"sampler":1,"source":1,"name":"texture"}],"samplers":[{"magFilter":9728,"minFilter":9728,"wrapS":33071,"wrapT":33071},{"magFilter":9728,"minFilter":9728,"wrapS":33071,"wrapT":33071}],"images":[{"mimeType":"image/png","uri":"data:image/png;base64,"},{"mimeType":"image/png","uri":"data:image/png;base64,"}],"meshes":[{"primitives":[{"mode":4,"attributes":{"POSITION":0,"NORMAL":1,"TEXCOORD_0":2},"indices":3,"material":0}]},{"primitives":[{"mode":4,"attributes":{"POSITION":4,"NORMAL":5,"TEXCOORD_0":6},"indices":7,"material":1}]}]}